<svg width="168" height="47" viewBox="0 0 168 47" fill="none" xmlns="http://www.w3.org/2000/svg">
<path d="M20.5156 5.075L19.7906 9.05C19.3406 11.575 16.8906 13.6 14.3156 13.6L6.34063 13.625C6.21563 13.625 6.11563 13.7 6.09063 13.825L5.51563 17.05C5.41563 17.575 4.89063 18 4.36563 18H1.06563C0.515625 18 0.140625 17.575 0.240625 17.05L3.06563 1.475C3.16563 0.949999 3.66563 0.499999 4.21563 0.499999H16.6906C19.2656 0.499999 20.9656 2.55 20.5156 5.075ZM15.0906 5.75C15.1906 5.275 14.8656 4.875 14.3656 4.875H7.91563C7.81563 4.875 7.69063 4.975 7.69063 5.075L6.96563 9.05C6.94063 9.15 7.01563 9.225 7.14063 9.225H13.5906C14.0656 9.225 14.5406 8.85 14.6156 8.375L15.0906 5.75ZM36.0549 1.95C38.4799 1.95 40.0799 3.875 39.6549 6.25L39.0049 9.825C38.7299 11.375 37.6049 12.775 36.0799 13.525C36.0549 13.55 36.0299 13.575 36.0299 13.575L37.8549 16.775C38.0049 17.025 38.0049 17.325 37.8549 17.575C37.7299 17.825 37.4549 17.95 37.1799 17.95C35.5799 17.95 35.0549 18 33.7049 18C32.8549 18 32.4799 17.925 32.2549 17.5L30.6049 14.2C30.5549 14.1 30.4549 14.05 30.3299 14.05H26.7299C26.7049 14.05 26.6799 14.075 26.6799 14.1L26.1549 17.025C26.0549 17.575 25.5299 18 24.9549 18H21.9799C21.4049 18 21.0049 17.525 21.1049 16.95L23.6299 2.95C23.7299 2.4 24.2799 1.95 24.8299 1.95H36.0549ZM34.4799 6.8C34.5049 6.625 34.4549 6.475 34.3799 6.375C34.2799 6.25 34.1299 6.2 33.9799 6.2H28.1549C28.1299 6.2 28.1049 6.225 28.1049 6.25L27.4549 9.8H33.2549C33.6299 9.8 33.9799 9.5 34.0549 9.15L34.4799 6.8ZM47.4455 1.95C48.0455 1.95 48.4205 2.45 48.3205 3.025L45.7955 17.025C45.6955 17.575 45.1705 18 44.5955 18H41.6205C41.3455 18 41.0955 17.9 40.9205 17.7C40.7705 17.5 40.6955 17.225 40.7455 16.95L43.2705 2.95C43.3705 2.4 43.8955 1.95 44.4705 1.95H47.4455ZM64.5336 1.925C65.1086 1.925 65.5086 2.4 65.4086 2.975L64.9836 5.3C64.8836 5.875 64.3586 6.3 63.7836 6.3H56.2086C56.0086 6.3 55.7836 6.5 55.7336 6.7L54.5586 13.225C54.5336 13.325 54.5586 13.425 54.6086 13.475C54.6586 13.55 54.7336 13.575 54.8336 13.575H62.4086C63.0086 13.575 63.4086 14.05 63.3086 14.625L62.8836 17C62.7836 17.575 62.2336 18 61.6836 18H52.9586C51.7836 18 50.7586 17.575 50.0836 16.75C49.4086 15.95 49.1586 14.85 49.3586 13.725L50.7586 6.15C51.1836 3.825 53.4586 1.925 55.8336 1.925H64.5336ZM82.5242 1.925C82.9242 1.925 83.1992 2.25 83.1242 2.65L82.5742 5.6C82.5242 5.975 82.1742 6.275 81.7992 6.275H72.5742C72.5492 6.275 72.5242 6.3 72.5242 6.3L72.2242 7.925H79.6492C79.8242 7.925 79.9992 8 80.0992 8.15C80.2242 8.275 80.2742 8.45 80.2242 8.625L79.7492 11.375C79.6742 11.725 79.3242 12.025 78.9492 12.025H71.5492C71.5242 12.025 71.4992 12.05 71.4742 12.075L71.2242 13.575H80.4242C80.6242 13.575 80.7742 13.65 80.8992 13.775C80.9992 13.925 81.0492 14.1 81.0242 14.275L80.4742 17.375C80.3992 17.725 80.0492 18.025 79.6742 18.025H66.4242C66.1242 18.025 65.8742 17.9 65.7242 17.7C65.5492 17.5 65.4742 17.25 65.5242 16.95L68.0742 2.925C68.1742 2.375 68.6992 1.925 69.2742 1.925H82.5242Z" fill="#FCFAEE"/>
<path d="M84.663 28.925C85.238 28.925 85.638 29.4 85.538 29.975L85.113 32.3C85.013 32.875 84.488 33.3 83.913 33.3H76.338C76.138 33.3 75.913 33.5 75.863 33.7L74.688 40.225C74.663 40.325 74.688 40.425 74.738 40.475C74.788 40.55 74.863 40.575 74.963 40.575H82.538C83.138 40.575 83.538 41.05 83.438 41.625L83.013 44C82.913 44.575 82.363 45 81.813 45H73.088C71.913 45 70.888 44.575 70.213 43.75C69.538 42.95 69.288 41.85 69.488 40.725L70.888 33.15C71.313 30.825 73.588 28.925 75.963 28.925H84.663ZM103.229 28.95C103.829 28.95 104.229 29.425 104.129 30.025L101.604 44.025C101.504 44.575 100.954 45.025 100.404 45.025H97.4286C97.1286 45.025 96.9036 44.9 96.7286 44.7C96.5536 44.5 96.5036 44.225 96.5536 43.95L97.4536 38.975H91.6786C91.6536 38.975 91.6286 39 91.6286 39.025L90.7286 44.025C90.6286 44.575 90.1036 45.025 89.5286 45.025H86.5536C85.9786 45.025 85.5786 44.525 85.6786 43.95L88.2036 29.95C88.3036 29.4 88.8286 28.95 89.4036 28.95H92.3786C92.9536 28.95 93.3536 29.45 93.2536 30.025L92.3786 34.9H98.1286C98.1536 34.9 98.1786 34.875 98.1786 34.85L99.0786 29.95C99.1786 29.4 99.7036 28.95 100.279 28.95H103.229ZM118.306 29.9L122.831 43.725C123.006 44.325 122.531 45.025 121.906 45.025H118.331C118.006 45.025 117.756 44.8 117.656 44.5L117.281 43.3H109.881L109.606 43.7L109.031 44.55C108.806 44.85 108.481 45.025 108.156 45.025H104.356C103.681 45.025 103.331 44.275 103.781 43.675L112.881 29.875C113.481 29.075 114.231 29 115.031 28.975C115.331 28.975 116.906 29 117.131 29C117.431 29 118.056 29.175 118.306 29.9ZM116.031 39.25L114.906 35.65L112.531 39.25H116.031ZM146.737 28.975C147.337 28.975 147.737 29.45 147.637 30.025L145.112 44.025C144.987 44.575 144.462 45.025 143.912 45.025H141.212C140.937 45.025 140.687 44.9 140.512 44.7C140.362 44.5 140.287 44.225 140.337 43.95L141.212 39.075L137.637 44.425C137.412 44.775 137.012 45 136.612 45H133.062C132.637 45 132.312 44.775 132.187 44.4L130.537 39.05L129.662 44.025C129.537 44.575 129.012 45 128.462 45H125.762C125.187 45 124.787 44.525 124.887 43.95L127.412 29.975C127.512 29.4 128.037 28.975 128.612 28.975H132.062C132.462 28.975 132.812 29.225 132.912 29.6L135.612 39.325C135.612 39.375 135.662 39.375 135.662 39.375C135.687 39.375 135.712 39.375 135.737 39.35L142.287 29.55C142.512 29.2 142.912 28.975 143.312 28.975H146.737ZM163.286 28.95C165.686 28.95 167.311 30.875 166.886 33.25L166.236 36.825C165.811 39.15 163.536 41.05 161.161 41.05H153.961C153.936 41.05 153.911 41.075 153.911 41.1L153.386 44.025C153.286 44.575 152.761 45.025 152.186 45.025H149.211C148.636 45.025 148.236 44.525 148.336 43.95L150.861 29.95C150.961 29.4 151.511 28.95 152.061 28.95H163.286ZM161.711 33.8C161.736 33.625 161.686 33.475 161.611 33.375C161.511 33.25 161.361 33.2 161.211 33.2H155.386C155.361 33.2 155.336 33.225 155.336 33.25L154.686 36.8H160.486C160.861 36.8 161.211 36.525 161.286 36.15L161.711 33.8Z" fill="#FCFAEE"/>
</svg>
