<svg width="211" height="75" viewBox="0 0 211 75" fill="none" xmlns="http://www.w3.org/2000/svg">
<g filter="url(#filter0_d_193_1157)">
<path d="M66.0334 2H48.3554L22.8203 37.0333H40.4983L66.0334 2Z" fill="#BF392C"/>
<path d="M13 2H30.678L56.2129 37.0333H38.5349L13 2Z" fill="#E2574C"/>
<path d="M40.4991 20.4351C52.4809 20.4351 62.1057 29.4701 62.1057 40.7176C62.1057 51.9651 52.4809 61.0001 40.4991 61.0001C28.5174 61.0001 18.8926 51.9651 18.8926 40.7176C18.8926 29.4701 28.5174 20.4351 40.4991 20.4351Z" fill="#EFC75E"/>
<path d="M40.502 25.9692C31.8594 25.9692 24.7881 32.6071 24.7881 40.7202C24.7881 48.8334 31.8592 55.4712 40.502 55.4712C49.1447 55.4712 56.2159 48.8334 56.2159 40.7202C56.2159 32.6071 49.1445 25.9692 40.502 25.9692ZM40.502 51.7834C34.02 51.7834 28.7167 46.8048 28.7167 40.7202C28.7167 34.6356 34.0202 29.6571 40.502 29.6571C46.9838 29.6571 52.2873 34.6356 52.2873 40.7202C52.2873 46.8048 46.9838 51.7834 40.502 51.7834Z" fill="#D7B354"/>
<path d="M109.622 7.905L108.607 13.47C107.977 17.005 104.547 19.84 100.942 19.84L89.7769 19.875C89.6019 19.875 89.4619 19.98 89.4269 20.155L88.6219 24.67C88.4819 25.405 87.7469 26 87.0119 26H82.3919C81.6219 26 81.0969 25.405 81.2369 24.67L85.1919 2.865C85.3319 2.13 86.0319 1.5 86.8019 1.5H104.267C107.872 1.5 110.252 4.37 109.622 7.905ZM102.027 8.85C102.167 8.185 101.712 7.625 101.012 7.625H91.9819C91.8419 7.625 91.6669 7.765 91.6669 7.905L90.6519 13.47C90.6169 13.61 90.7219 13.715 90.8969 13.715H99.9269C100.592 13.715 101.257 13.19 101.362 12.525L102.027 8.85ZM131.377 3.53C134.772 3.53 137.012 6.225 136.417 9.55L135.507 14.555C135.122 16.725 133.547 18.685 131.412 19.735C131.377 19.77 131.342 19.805 131.342 19.805L133.897 24.285C134.107 24.635 134.107 25.055 133.897 25.405C133.722 25.755 133.337 25.93 132.952 25.93C130.712 25.93 129.977 26 128.087 26C126.897 26 126.372 25.895 126.057 25.3L123.747 20.68C123.677 20.54 123.537 20.47 123.362 20.47H118.322C118.287 20.47 118.252 20.505 118.252 20.54L117.517 24.635C117.377 25.405 116.642 26 115.837 26H111.672C110.867 26 110.307 25.335 110.447 24.53L113.982 4.93C114.122 4.16 114.892 3.53 115.662 3.53H131.377ZM129.172 10.32C129.207 10.075 129.137 9.865 129.032 9.725C128.892 9.55 128.682 9.48 128.472 9.48H120.317C120.282 9.48 120.247 9.515 120.247 9.55L119.337 14.52H127.457C127.982 14.52 128.472 14.1 128.577 13.61L129.172 10.32ZM147.324 3.53C148.164 3.53 148.689 4.23 148.549 5.035L145.014 24.635C144.874 25.405 144.139 26 143.334 26H139.169C138.784 26 138.434 25.86 138.189 25.58C137.979 25.3 137.874 24.915 137.944 24.53L141.479 4.93C141.619 4.16 142.354 3.53 143.159 3.53H147.324ZM171.247 3.495C172.052 3.495 172.612 4.16 172.472 4.965L171.877 8.22C171.737 9.025 171.002 9.62 170.197 9.62H159.592C159.312 9.62 158.997 9.9 158.927 10.18L157.282 19.315C157.247 19.455 157.282 19.595 157.352 19.665C157.422 19.77 157.527 19.805 157.667 19.805H168.272C169.112 19.805 169.672 20.47 169.532 21.275L168.937 24.6C168.797 25.405 168.027 26 167.257 26H155.042C153.397 26 151.962 25.405 151.017 24.25C150.072 23.13 149.722 21.59 150.002 20.015L151.962 9.41C152.557 6.155 155.742 3.495 159.067 3.495H171.247ZM196.434 3.495C196.994 3.495 197.379 3.95 197.274 4.51L196.504 8.64C196.434 9.165 195.944 9.585 195.419 9.585H182.504C182.469 9.585 182.434 9.62 182.434 9.62L182.014 11.895H192.409C192.654 11.895 192.899 12 193.039 12.21C193.214 12.385 193.284 12.63 193.214 12.875L192.549 16.725C192.444 17.215 191.954 17.635 191.429 17.635H181.069C181.034 17.635 180.999 17.67 180.964 17.705L180.614 19.805H193.494C193.774 19.805 193.984 19.91 194.159 20.085C194.299 20.295 194.369 20.54 194.334 20.785L193.564 25.125C193.459 25.615 192.969 26.035 192.444 26.035H173.894C173.474 26.035 173.124 25.86 172.914 25.58C172.669 25.3 172.564 24.95 172.634 24.53L176.204 4.895C176.344 4.125 177.079 3.495 177.884 3.495H196.434ZM92.3282 32.495C93.1332 32.495 93.6932 33.16 93.5532 33.965L92.9582 37.22C92.8182 38.025 92.0832 38.62 91.2782 38.62H80.6732C80.3932 38.62 80.0782 38.9 80.0082 39.18L78.3632 48.315C78.3282 48.455 78.3632 48.595 78.4332 48.665C78.5032 48.77 78.6082 48.805 78.7482 48.805H89.3532C90.1932 48.805 90.7532 49.47 90.6132 50.275L90.0182 53.6C89.8782 54.405 89.1082 55 88.3382 55H76.1232C74.4782 55 73.0432 54.405 72.0982 53.25C71.1532 52.13 70.8032 50.59 71.0832 49.015L73.0432 38.41C73.6382 35.155 76.8232 32.495 80.1482 32.495H92.3282ZM118.32 32.53C119.16 32.53 119.72 33.195 119.58 34.035L116.045 53.635C115.905 54.405 115.135 55.035 114.365 55.035H110.2C109.78 55.035 109.465 54.86 109.22 54.58C108.975 54.3 108.905 53.915 108.975 53.53L110.235 46.565H102.15C102.115 46.565 102.08 46.6 102.08 46.635L100.82 53.635C100.68 54.405 99.9451 55.035 99.1401 55.035H94.9751C94.1701 55.035 93.6101 54.335 93.7501 53.53L97.2851 33.93C97.4251 33.16 98.1601 32.53 98.9651 32.53H103.13C103.935 32.53 104.495 33.23 104.355 34.035L103.13 40.86H111.18C111.215 40.86 111.25 40.825 111.25 40.79L112.51 33.93C112.65 33.16 113.385 32.53 114.19 32.53H118.32ZM139.428 33.86L145.763 53.215C146.008 54.055 145.343 55.035 144.468 55.035H139.463C139.008 55.035 138.658 54.72 138.518 54.3L137.993 52.62H127.633L127.248 53.18L126.443 54.37C126.128 54.79 125.673 55.035 125.218 55.035H119.898C118.953 55.035 118.463 53.985 119.093 53.145L131.833 33.825C132.673 32.705 133.723 32.6 134.843 32.565C135.263 32.565 137.468 32.6 137.783 32.6C138.203 32.6 139.078 32.845 139.428 33.86ZM136.243 46.95L134.668 41.91L131.343 46.95H136.243ZM179.231 32.565C180.071 32.565 180.631 33.23 180.491 34.035L176.956 53.635C176.781 54.405 176.046 55.035 175.276 55.035H171.496C171.111 55.035 170.761 54.86 170.516 54.58C170.306 54.3 170.201 53.915 170.271 53.53L171.496 46.705L166.491 54.195C166.176 54.685 165.616 55 165.056 55H160.086C159.491 55 159.036 54.685 158.861 54.16L156.551 46.67L155.326 53.635C155.151 54.405 154.416 55 153.646 55H149.866C149.061 55 148.501 54.335 148.641 53.53L152.176 33.965C152.316 33.16 153.051 32.565 153.856 32.565H158.686C159.246 32.565 159.736 32.915 159.876 33.44L163.656 47.055C163.656 47.125 163.726 47.125 163.726 47.125C163.761 47.125 163.796 47.125 163.831 47.09L173.001 33.37C173.316 32.88 173.876 32.565 174.436 32.565H179.231ZM202.4 32.53C205.76 32.53 208.035 35.225 207.44 38.55L206.53 43.555C205.935 46.81 202.75 49.47 199.425 49.47H189.345C189.31 49.47 189.275 49.505 189.275 49.54L188.54 53.635C188.4 54.405 187.665 55.035 186.86 55.035H182.695C181.89 55.035 181.33 54.335 181.47 53.53L185.005 33.93C185.145 33.16 185.915 32.53 186.685 32.53H202.4ZM200.195 39.32C200.23 39.075 200.16 38.865 200.055 38.725C199.915 38.55 199.705 38.48 199.495 38.48H191.34C191.305 38.48 191.27 38.515 191.27 38.55L190.36 43.52H198.48C199.005 43.52 199.495 43.135 199.6 42.61L200.195 39.32Z" fill="black"/>
</g>
<defs>
<filter id="filter0_d_193_1157" x="0.5" y="0" width="210.035" height="74.5" filterUnits="userSpaceOnUse" color-interpolation-filters="sRGB">
<feFlood flood-opacity="0" result="BackgroundImageFix"/>
<feColorMatrix in="SourceAlpha" type="matrix" values="0 0 0 0 0 0 0 0 0 0 0 0 0 0 0 0 0 0 127 0" result="hardAlpha"/>
<feOffset dx="-5" dy="6"/>
<feGaussianBlur stdDeviation="3.75"/>
<feComposite in2="hardAlpha" operator="out"/>
<feColorMatrix type="matrix" values="0 0 0 0 0 0 0 0 0 0 0 0 0 0 0 0 0 0 0.25 0"/>
<feBlend mode="normal" in2="BackgroundImageFix" result="effect1_dropShadow_193_1157"/>
<feBlend mode="normal" in="SourceGraphic" in2="effect1_dropShadow_193_1157" result="shape"/>
</filter>
</defs>
</svg>
