<svg width="683" height="679" viewBox="0 0 683 679" fill="none" xmlns="http://www.w3.org/2000/svg">
<path d="M241.334 4.53311C173.467 27.0664 121.067 63.4664 72.667 121.6C64.5337 131.466 46.267 160.4 38.1337 176.666C19.467 213.2 7.60037 252 2.5337 292.666C-0.132963 313.466 0.267037 360.4 3.20037 380C14.4004 457.066 46.667 522.133 100.4 576.533C154.4 631.066 221.734 664.8 299.334 676.133C318.534 678.933 365.867 679.333 385.334 676.8C485.2 664.133 572.267 612 628.8 531.333C643.867 509.866 657.867 483.466 667.334 459.066C673.467 443.2 682.667 412.133 682.667 407.066C682.667 401.466 677.867 392.933 672.934 390C662.267 383.466 654.134 385.2 638.267 397.2C594.8 430.4 549.867 447.6 496.534 451.333C475.734 452.933 465.734 452.533 442.667 449.2C342.134 434.666 259.6 361.333 232.534 262.266C221.334 221.066 221.067 172.933 232 130.8C240.934 96.1331 251.734 74.1331 278 36.9331C285.067 26.9331 286 19.8664 281.067 11.0664C274.134 -1.06689 263.6 -2.93355 241.334 4.53311Z" fill="white"/>
</svg>
