<svg width="90" height="123" viewBox="0 0 90 123" fill="none" xmlns="http://www.w3.org/2000/svg">
<path d="M66.4 68.6604H40.29C38.4203 68.5908 36.6504 67.7992 35.3523 66.4518C34.0541 65.1045 33.3288 63.3064 33.3288 61.4354C33.3288 59.5644 34.0541 57.7663 35.3523 56.419C36.6504 55.0716 38.4203 54.28 40.29 54.2104H66.4L57.92 44.7504C56.6544 43.3289 55.9985 41.4668 56.094 39.5659C56.1894 37.6651 57.0284 35.878 58.43 34.5904C59.1193 33.9565 59.9278 33.4661 60.8085 33.1477C61.6892 32.8293 62.6244 32.6893 63.5597 32.7358C64.495 32.7823 65.4117 33.0145 66.2564 33.4187C67.1012 33.823 67.857 34.3912 68.48 35.0904L87.7 56.5404C88.9078 57.8675 89.5822 59.5945 89.5933 61.3889C89.6043 63.1833 88.9514 64.9185 87.76 66.2604L68.48 87.7704C67.8585 88.4714 67.1034 89.0416 66.259 89.4475C65.4146 89.8534 64.4977 90.0869 63.562 90.1344C62.6263 90.1819 61.6905 90.0424 60.8094 89.724C59.9282 89.4057 59.1193 88.9149 58.43 88.2804C57.0284 86.9928 56.1894 85.2057 56.094 83.3048C55.9985 81.404 56.6544 79.5419 57.92 78.1204L66.4 68.6604ZM42.94 108.57C43.8704 108.756 44.7551 109.123 45.5436 109.651C46.3321 110.179 47.0089 110.857 47.5354 111.646C48.0619 112.435 48.4278 113.321 48.6122 114.251C48.7966 115.182 48.7958 116.14 48.61 117.07C48.4242 118.001 48.0569 118.886 47.5292 119.674C47.0015 120.462 46.3236 121.139 45.5343 121.666C44.745 122.192 43.8597 122.558 42.929 122.743C41.9983 122.927 41.0404 122.926 40.11 122.74L36.74 122.06C12.84 117.32 0 114.63 0 80.2004V40.6304C0 7.65039 13.78 5.07039 36.6 0.810391L40.17 0.130391C42.0491 -0.228978 43.9939 0.172826 45.5767 1.24741C47.1595 2.32199 48.2506 3.98133 48.61 5.86039C48.9694 7.73945 48.5676 9.68431 47.493 11.2671C46.4184 12.8499 44.7591 13.941 42.88 14.3004L39.25 15.0004C23.79 17.8904 14.45 19.6304 14.45 40.6504V80.2004C14.45 102.81 23.22 104.66 39.55 107.9L42.94 108.57Z" fill="white"/>
</svg>
