<svg width="683" height="683" viewBox="0 0 683 683" fill="none" xmlns="http://www.w3.org/2000/svg">
<path d="M329.601 2.26666C322.001 4.93333 312.801 14.4 310.134 22.2667C306.934 31.4667 307.068 88.6667 310.268 98C314.401 110.267 328.134 120 341.334 120C354.534 120 368.268 110.267 372.401 98C375.601 88.6667 375.734 31.4667 372.534 22.2667C366.801 5.33333 346.934 -3.86667 329.601 2.26666Z" fill="white"/>
<path d="M111.334 92.667C104.4 95.2003 94.0003 106 92.1337 112.8C91.3337 115.6 90.667 121.067 90.667 124.8C90.667 136.4 94.9337 142.534 120.4 167.6C144.667 191.6 149.467 194.667 161.334 194.667C178.667 194.667 194.667 178.667 194.667 161.334C194.667 149.467 191.6 144.667 167.6 120.4C142 94.4003 136.4 90.667 124.134 90.667C120 90.8003 114.267 91.6003 111.334 92.667Z" fill="white"/>
<path d="M544.533 94.0003C539.733 96.4003 531.067 104.134 515.067 120.4C491.067 144.667 488 149.467 488 161.334C488 178.667 504 194.667 521.333 194.667C533.2 194.667 538 191.6 562.267 167.6C587.733 142.534 592 136.4 592 124.8C592 113.6 589.733 108 582.133 100.534C571.6 90.0003 557.467 87.467 544.533 94.0003Z" fill="white"/>
<path d="M320.667 171.467C319.2 171.867 313.2 173.067 307.333 174.134C241.333 186.8 188.4 239.867 173.733 308C170.4 323.867 170.4 358.8 173.733 374.667C188.533 443.334 239.333 494.267 308 508.934C323.867 512.267 358.8 512.267 374.667 508.934C443.333 494.267 494.133 443.334 508.933 374.667C512.267 358.8 512.267 323.867 508.933 308C494.4 240.134 443.733 189.067 376 174C366.267 171.867 326.667 170 320.667 171.467Z" fill="white"/>
<path d="M21.6005 310.267C18.5338 311.334 13.3338 314.8 10.1338 318.134C-3.19954 331.467 -3.19954 351.2 10.1338 364.534C19.4671 373.867 23.3338 374.667 60.0005 374.667C96.5338 374.667 100.934 373.734 110 364.667C123.067 351.6 123.067 331.067 110 318C100.934 308.8 96.5338 308 59.4671 308.134C34.4005 308.134 26.1338 308.667 21.6005 310.267Z" fill="white"/>
<path d="M584.801 310.134C577.201 312.934 571.201 317.867 567.067 325.067C563.867 330.4 563.334 332.8 563.334 341.334C563.334 349.867 563.867 352.267 567.067 357.6C571.334 364.934 577.201 369.867 585.201 372.667C593.734 375.6 651.601 375.6 660.401 372.534C672.667 368.4 682.667 354.267 682.667 341.334C682.667 328.4 672.667 314.267 660.401 310.134C651.867 307.2 592.801 307.2 584.801 310.134Z" fill="white"/>
<path d="M149.334 490.267C141.2 493.2 99.0671 534.4 94.0004 544.533C87.4671 557.467 90.0004 571.6 100.534 582.133C108 589.733 113.6 592 124.8 592C136.4 592 142.534 587.733 167.6 562.267C186.534 543.067 190.534 538.267 192.4 532.8C196.8 519.733 194.134 507.6 184.534 498.133C175.067 488.533 162.267 485.733 149.334 490.267Z" fill="white"/>
<path d="M509.6 490.267C498 494.4 488 508.667 488 521.333C488 533.2 491.067 538 515.067 562.267C540.133 587.733 546.267 592 557.867 592C569.067 592 574.667 589.733 582.133 582.133C589.733 574.667 592 569.067 592 557.867C592 546.267 587.733 540.133 562.267 515.067C543.067 496.133 538.267 492.133 532.8 490.267C524.8 487.467 517.2 487.467 509.6 490.267Z" fill="white"/>
<path d="M330.134 564.533C322.534 567.333 315.734 573.467 312.001 580.8C308.801 587.067 308.667 588 308.267 620.4C307.867 659.2 308.534 662.933 318.134 672.533C331.467 685.867 351.201 685.867 364.534 672.533C373.867 663.2 374.667 659.333 374.667 622.533C374.667 588.533 374.001 583.867 367.201 575.067C359.467 564.933 342.267 560 330.134 564.533Z" fill="white"/>
</svg>
